HIERARCHY
ROOT Hips
{
	OFFSET 0.00000 0.00000 0.00000
	CHANNELS 6 Xposition Yposition Zposition Zrotation Yrotation Xrotation 
	JOINT LHipJoint
	{
		OFFSET 0 0 0
		CHANNELS 3 Zrotation Yrotation Xrotation
		JOINT LeftUpLeg
		{
			OFFSET 1.26600 -1.82114 0.91038
			CHANNELS 3 Zrotation Yrotation Xrotation
			JOINT LeftLeg
			{
				OFFSET 2.50076 -6.87080 0.00000
				CHANNELS 3 Zrotation Yrotation Xrotation
				JOINT LeftFoot
				{
					OFFSET 2.57364 -7.07102 0.00000
					CHANNELS 3 Zrotation Yrotation Xrotation
					JOINT LeftToeBase
					{
						OFFSET 0.13572 -0.37290 1.97004
						CHANNELS 3 Zrotation Yrotation Xrotation
						End Site
						{
							OFFSET 0.00000 -0.00000 1.01383
						}
					}
				}
			}
		}
	}
	JOINT RHipJoint
	{
		OFFSET 0 0 0
		CHANNELS 3 Zrotation Yrotation Xrotation
		JOINT RightUpLeg
		{
			OFFSET -1.20803 -1.82114 0.91038
			CHANNELS 3 Zrotation Yrotation Xrotation
			JOINT RightLeg
			{
				OFFSET -2.54916 -7.00377 0.00000
				CHANNELS 3 Zrotation Yrotation Xrotation
				JOINT RightFoot
				{
					OFFSET -2.56374 -7.04382 0.00000
					CHANNELS 3 Zrotation Yrotation Xrotation
					JOINT RightToeBase
					{
						OFFSET -0.23520 -0.64621 2.09921
						CHANNELS 3 Zrotation Yrotation Xrotation
						End Site
						{
							OFFSET -0.00000 -0.00000 1.10065
						}
					}
				}
			}
		}
	}
	JOINT LowerBack
	{
		OFFSET 0 0 0
		CHANNELS 3 Zrotation Yrotation Xrotation
		JOINT Spine
		{
			OFFSET 0.05492 2.10797 -0.12074
			CHANNELS 3 Zrotation Yrotation Xrotation
			JOINT Spine1
			{
				OFFSET 0.04577 2.11592 -0.04483
				CHANNELS 3 Zrotation Yrotation Xrotation
				JOINT Neck
				{
					OFFSET 0 0 0
					CHANNELS 3 Zrotation Yrotation Xrotation
					JOINT Neck1
					{
						OFFSET -0.10759 1.80167 0.15770
						CHANNELS 3 Zrotation Yrotation Xrotation
						JOINT Head
						{
							OFFSET 0.09237 1.77509 -0.40848
							CHANNELS 3 Zrotation Yrotation Xrotation
							End Site
							{
								OFFSET 0.03805 1.84093 -0.15754
							}
						}
					}
				}
				JOINT LeftShoulder
				{
					OFFSET 0 0 0
					CHANNELS 3 Zrotation Yrotation Xrotation
					JOINT LeftArm
					{
						OFFSET 3.42372 1.09575 -0.28209
						CHANNELS 3 Zrotation Yrotation Xrotation
						JOINT LeftForeArm
						{
							OFFSET 4.95681 -0.00000 0.00000
							CHANNELS 3 Zrotation Yrotation Xrotation
							JOINT LeftHand
							{
								OFFSET 3.40915 -0.00000 0.00000
								CHANNELS 3 Zrotation Yrotation Xrotation
								JOINT LeftFingerBase
								{
									OFFSET 0 0 0
									CHANNELS 3 Zrotation Yrotation Xrotation
									JOINT LeftHandIndex1
									{
										OFFSET 0.61640 -0.00000 0.00000
										CHANNELS 3 Zrotation Yrotation Xrotation
										End Site
										{
											OFFSET 0.49696 -0.00000 0.00000
										}
									}
								}
								JOINT LThumb
								{
									OFFSET 0 0 0
									CHANNELS 3 Zrotation Yrotation Xrotation
									End Site
									{
										OFFSET 0.50455 -0.00000 0.50455
									}
								}
							}
						}
					}
				}
				JOINT RightShoulder
				{
					OFFSET 0 0 0
					CHANNELS 3 Zrotation Yrotation Xrotation
					JOINT RightArm
					{
						OFFSET -3.24731 1.15872 -0.32221
						CHANNELS 3 Zrotation Yrotation Xrotation
						JOINT RightForeArm
						{
							OFFSET -5.35200 -0.00000 0.00000
							CHANNELS 3 Zrotation Yrotation Xrotation
							JOINT RightHand
							{
								OFFSET -3.43721 -0.00000 -0.00000
								CHANNELS 3 Zrotation Yrotation Xrotation
								JOINT RightFingerBase
								{
									OFFSET 0 0 0
									CHANNELS 3 Zrotation Yrotation Xrotation
									JOINT RightHandIndex1
									{
										OFFSET -0.72009 -0.00000 0.00000
										CHANNELS 3 Zrotation Yrotation Xrotation
										End Site
										{
											OFFSET -0.58056 -0.00000 0.00000
										}
									}
								}
								JOINT RThumb
								{
									OFFSET 0 0 0
									CHANNELS 3 Zrotation Yrotation Xrotation
									End Site
									{
										OFFSET -0.58942 -0.00000 0.58942
									}
								}
							}
						}
					}
				}
			}
		}
	}
}
MOTION
Frames: 10
Frame Time: .0083333
10.4722 20.8221 -7.2368 -176.6270 4.5646 -184.9850 0.0000 0.0000 0.0000 0.8343 6.9207 -2.1027 22.7145 19.8224 97.9592 -4.5990 -34.7672 15.8468 0.3853 3.9863 11.0382 0.0000 0.0000 0.0000 26.3718 3.6292 -14.8343 -4.9587 -13.3371 40.6439 -0.0114 12.3536 -8.8200 -1.6477 8.0901 -22.9880 1.5059 -1.2287 7.6393 3.8698 -1.0888 3.0683 3.2391 -0.3947 -1.0670 -7.6303 -3.8538 -9.9158 -0.3941 3.9593 44.0128 2.6114 2.4798 18.1960 0.0000 -0.0000 0.0000 -93.4585 10.4056 12.5459 13.9822 -22.7092 -2.8212 -0.0000 -0.0000 3.2813 28.8458 12.0921 6.5819 -7.1250 0.0000 -0.0000 1.4957 43.7186 -0.0473 0.0000 -0.0000 0.0000 84.1336 -2.5074 7.9951 -17.1686 27.0795 -4.1638 0.0000 -0.0000 -12.6440 -21.1712 12.4563 -4.7753 7.1250 -0.0000 -0.0000 4.2135 -16.6761 2.8349
10.4721 20.8813 -7.2867 -176.7120 4.7422 -184.6320 0.0000 0.0000 0.0000 0.3794 7.1194 -2.2475 22.5668 19.8413 97.5238 -4.4942 -34.4211 14.9732 0.2749 3.3722 9.3167 0.0000 0.0000 0.0000 26.3184 3.6127 -14.1931 -4.6590 -12.9892 39.3280 -0.0168 12.3266 -8.8740 -1.5303 7.8103 -22.1395 1.4382 -1.1689 7.3138 3.8447 -1.0356 3.1177 3.2398 -0.3719 -0.8372 -7.7022 -3.8442 -10.0031 -0.2432 3.8314 43.8747 2.6604 2.4127 18.1292 -0.0000 -0.0000 0.0000 -93.2994 10.2192 13.5743 14.1300 -22.9202 -2.8785 -0.0000 -0.0000 3.8115 28.9449 11.8780 6.4942 -7.1250 0.0000 -0.0000 1.6036 43.4890 -0.0598 -0.0000 -0.0000 0.0000 84.1022 -2.8792 8.5381 -17.6504 27.7072 -4.3855 0.0000 -0.0000 -13.1329 -21.0265 12.8579 -4.8892 7.1250 -0.0000 -0.0000 4.3283 -16.2640 2.9514
10.4705 20.9322 -7.3326 -176.8050 5.0025 -184.2430 0.0000 0.0000 0.0000 0.1129 7.5156 -2.4954 22.4912 19.8506 97.3012 -4.2848 -33.7361 14.3439 0.2582 3.2690 9.0286 0.0000 0.0000 0.0000 26.2741 3.7708 -13.4057 -4.3129 -12.5655 37.7632 -0.0281 12.2511 -8.9722 -1.4368 7.5785 -21.4411 1.3509 -1.1117 6.9755 3.8527 -0.9868 3.1205 3.2872 -0.3525 -0.6473 -7.8223 -3.7904 -10.0268 -0.1781 3.7834 43.6329 2.6828 2.3584 17.9834 0.0000 0.0000 0.0000 -93.3220 10.0607 13.7827 14.3012 -23.1637 -2.9456 -0.0000 -0.0000 4.8525 27.7109 12.8793 6.6777 -7.1250 0.0000 -0.0000 0.3745 44.4609 -0.0050 0.0000 0.0000 0.0000 83.9928 -3.3478 9.2628 -18.2627 28.4922 -4.6739 0.0000 -0.0000 -13.6153 -20.9410 12.3544 -4.6808 7.1250 -0.0000 -0.0000 4.3698 -16.8057 2.9283
10.4731 20.9871 -7.3802 -176.8080 5.2348 -183.8950 0.0000 0.0000 0.0000 0.0637 7.9177 -2.8072 22.4294 19.8579 97.1193 -4.0493 -32.9391 14.0267 0.2662 3.3194 9.1692 0.0000 0.0000 0.0000 26.3385 3.8293 -12.7119 -3.9962 -12.1553 36.2838 -0.0041 12.2741 -8.6674 -1.3758 7.4228 -20.9740 1.3526 -1.0850 6.7915 3.8884 -0.9642 3.0139 3.3192 -0.3455 -0.6556 -7.9316 -3.7474 -9.9486 -0.2160 3.8383 43.5102 2.6824 2.3528 17.8875 0.0000 -0.0000 0.0000 -93.3787 10.1888 13.9729 14.4778 -23.4136 -3.0154 -0.0000 -0.0000 5.1274 26.4465 13.8107 6.7717 -7.1250 0.0000 -0.0000 -0.9128 45.3304 -0.0074 0.0000 -0.0000 0.0000 83.8784 -3.9383 9.8690 -18.7965 29.1650 -4.9313 0.0000 -0.0000 -13.8377 -20.8946 12.0449 -4.5548 7.1250 -0.0000 -0.0000 4.3921 -17.1380 2.9114
10.4746 21.0200 -7.4224 -176.8790 5.2816 -183.5520 0.0000 0.0000 0.0000 -0.1804 8.0453 -3.2291 22.4350 19.8572 97.1357 -3.8574 -32.2623 13.4906 0.2585 3.2712 9.0347 0.0000 0.0000 0.0000 26.3336 3.4780 -11.9894 -3.6774 -11.7182 34.7424 -0.0608 12.0972 -9.3011 -1.2266 7.0243 -19.7875 1.3260 -1.0525 6.6456 3.8296 -0.9428 2.8653 3.2701 -0.3423 -0.7295 -7.8879 -3.7774 -9.9228 -0.1777 3.7655 43.5383 2.6813 2.3365 17.8986 0.0000 -0.0000 0.0000 -93.1081 10.4384 14.9149 14.6502 -23.6566 -3.0842 -0.0000 -0.0000 4.1778 26.5671 13.9485 6.8730 -7.1250 0.0000 -0.0000 -0.8182 45.4978 -0.0101 0.0000 -0.0000 0.0000 83.9550 -4.6444 10.3644 -19.3378 29.8363 -5.1979 0.0000 -0.0000 -13.9610 -20.9624 12.4763 -4.7313 7.1250 -0.0000 -0.0000 4.3591 -16.6745 2.9336
10.4836 21.1151 -7.4847 -176.7620 5.3189 -183.2340 0.0000 0.0000 0.0000 -0.2231 8.2644 -3.3914 22.3414 19.8680 96.8603 -3.6502 -31.5058 12.6522 0.2999 3.5210 9.7329 0.0000 0.0000 0.0000 26.4665 3.7839 -11.3499 -3.3853 -11.2940 33.2780 0.0844 12.3304 -7.4562 -1.3060 7.2395 -20.4269 1.4302 -1.0132 6.5267 3.8622 -0.8910 2.7427 3.2404 -0.3185 -0.7936 -7.7630 -3.8178 -10.0385 -0.1996 3.7260 43.6570 2.6530 2.3382 18.0044 0.0000 -0.0000 0.0000 -92.8101 10.6907 16.0611 14.8712 -23.9664 -3.1734 -0.0000 -0.0000 2.6642 26.9155 13.7902 6.8999 -7.1250 0.0000 -0.0000 -0.4714 45.3694 -0.0043 0.0000 -0.0000 0.0000 83.9782 -5.3230 10.8014 -19.8491 30.4601 -5.4546 0.0000 -0.0000 -14.0976 -20.9925 13.3645 -5.0685 7.1250 -0.0000 -0.0000 4.3713 -15.7307 3.0314
10.4907 21.1976 -7.5431 -176.4520 5.4017 -182.9230 0.0000 0.0000 0.0000 0.1237 8.5706 -3.7051 22.3353 19.8687 96.8423 -3.4256 -30.6760 11.0334 0.3144 3.6044 9.9662 0.0000 0.0000 0.0000 26.8112 4.3260 -10.7130 -3.1183 -10.8842 31.8902 0.2017 12.5444 -5.7910 -1.2830 7.1778 -20.2432 1.8157 -0.9624 6.3523 3.8896 -0.8045 2.6666 3.0432 -0.2728 -0.7849 -7.4971 -3.8331 -10.0964 -0.3056 3.6583 43.6370 2.5440 2.3372 18.0121 0.0000 -0.0000 0.0000 -92.4818 10.8376 17.0312 15.1686 -24.3804 -3.2952 -0.0000 -0.0000 1.0711 26.7071 14.3865 7.1251 -7.1250 0.0000 -0.0000 -0.7456 45.9992 -0.0184 0.0000 -0.0000 0.0000 84.1117 -5.9047 10.9599 -20.2593 30.9535 -5.6641 0.0000 -0.0000 -14.0397 -20.8256 13.7719 -5.1741 7.1250 -0.0000 -0.0000 4.5022 -15.3166 3.1630
10.4927 21.2532 -7.5881 -176.4740 5.2001 -182.5070 0.0000 0.0000 0.0000 -0.0175 8.4894 -4.5250 22.4627 19.8540 97.2173 -3.1814 -29.7469 9.6674 0.2810 3.4093 9.4203 0.0000 0.0000 0.0000 26.7729 4.3699 -10.3157 -2.8848 -10.5062 30.6319 0.2294 12.5000 -5.2601 -1.1935 6.9321 -19.5144 1.9560 -1.0227 6.0239 3.7657 -0.9074 2.5786 2.8379 -0.3304 -0.6934 -7.4141 -3.8269 -10.2427 -0.1818 3.5268 43.5765 2.5594 2.2944 18.0100 0.0000 0.0000 0.0000 -92.1645 10.9242 17.5863 15.4698 -24.7965 -3.4206 -0.0000 0.0000 -0.2670 26.3857 15.4485 7.5277 -7.1250 0.0000 -0.0000 -1.2062 47.1207 -0.0631 0.0000 0.0000 0.0000 84.3462 -6.3666 11.1088 -20.6012 31.3599 -5.8410 0.0000 -0.0000 -13.7587 -20.6086 13.6422 -5.0685 7.1250 -0.0000 -0.0000 4.6458 -15.4756 3.2486
10.4965 21.3286 -7.6328 -176.9110 4.8597 -182.0790 0.0000 0.0000 0.0000 -0.7347 8.2626 -5.4369 22.6073 19.8362 97.6432 -2.9787 -28.8957 9.3220 0.1937 2.8343 7.8177 0.0000 0.0000 0.0000 26.2592 4.6315 -9.9889 -2.6636 -10.1295 29.3971 0.2815 12.2590 -3.9723 -1.2501 7.0888 -19.9788 1.5304 -1.1526 5.7598 3.6512 -1.1385 2.4448 2.9698 -0.4597 -0.6694 -7.6555 -3.8079 -10.4542 0.0176 3.4987 43.5673 2.6902 2.2467 18.0542 0.0000 -0.0000 0.0000 -92.0302 11.0154 17.8357 15.6901 -25.0987 -3.5135 -0.0000 0.0000 -1.3348 26.1974 15.9961 7.7212 -7.1250 0.0000 -0.0000 -1.4755 47.6925 -0.0980 0.0000 -0.0000 0.0000 84.3053 -6.7065 11.5109 -20.7896 31.5819 -5.9394 0.0000 -0.0000 -13.4850 -20.6909 13.7994 -5.1477 7.1250 -0.0000 -0.0000 4.5956 -15.3014 3.2305
10.4985 21.3750 -7.6721 -177.0100 4.7038 -181.7910 0.0000 0.0000 0.0000 -0.7884 8.3358 -6.0793 22.8278 19.8072 98.2935 -2.8572 -28.3984 8.6658 0.0364 1.2311 3.3850 0.0000 0.0000 0.0000 26.2212 4.6491 -9.4615 -2.4675 -9.7785 28.2625 0.2539 11.6699 -3.8000 -1.2493 7.0864 -19.9716 1.4071 -1.2346 5.6828 3.6647 -1.2613 2.3568 3.0600 -0.5248 -0.7088 -7.8009 -3.7525 -10.5308 0.0732 3.5268 43.4336 2.7360 2.2243 17.9886 -0.0000 0.0000 0.0000 -91.9083 11.0132 18.0305 15.8808 -25.3588 -3.5948 -0.0000 0.0000 -2.2297 25.8009 16.0016 7.5909 -7.1250 0.0000 -0.0000 -1.8576 47.6393 -0.1210 -0.0000 0.0000 0.0000 84.1074 -7.0108 12.1105 -20.9093 31.7224 -6.0022 0.0000 -0.0000 -13.5734 -21.1957 14.1631 -5.4203 7.1250 -0.0000 -0.0000 4.2661 -14.8641 3.0376
